<?xml version="1.0" encoding="UTF-8" standalone="no"?>
<!-- Created with Inkscape (http://www.inkscape.org/) -->

<svg
   width="210mm"
   height="297mm"
   viewBox="0 0 210 297"
   version="1.1"
   id="svg1"
   inkscape:version="1.4.2 (f4327f4, 2025-05-13)"
   sodipodi:docname="Restruant 1.svg"
   xmlns:inkscape="http://www.inkscape.org/namespaces/inkscape"
   xmlns:sodipodi="http://sodipodi.sourceforge.net/DTD/sodipodi-0.dtd"
   xmlns:xlink="http://www.w3.org/1999/xlink"
   xmlns="http://www.w3.org/2000/svg"
   xmlns:svg="http://www.w3.org/2000/svg">
  <sodipodi:namedview
     id="namedview1"
     pagecolor="#ffffff"
     bordercolor="#000000"
     borderopacity="0.25"
     inkscape:showpageshadow="2"
     inkscape:pageopacity="0.0"
     inkscape:pagecheckerboard="0"
     inkscape:deskcolor="#d1d1d1"
     inkscape:document-units="mm"
     inkscape:zoom="0.74208053"
     inkscape:cx="396.8572"
     inkscape:cy="561.25984"
     inkscape:window-width="1920"
     inkscape:window-height="1051"
     inkscape:window-x="-9"
     inkscape:window-y="-9"
     inkscape:window-maximized="1"
     inkscape:current-layer="layer1" />
  <defs
     id="defs1">
    <rect
       x="-184.61608"
       y="812.58028"
       width="442.00055"
       height="110.50014"
       id="rect32" />
    <symbol
       id="AigaSymbols.svg:Restaurant">
      <title
         id="title180">Restaurant</title>
      <g
         style="stroke:none"
         id="g182">
        <path
           d="m 30,30 v 33 a 3,3 0 0 1 -6,0 V 30 A 4,4 0 0 1 20,26 V 8 a 1,1 0 0 1 2,0 v 14 h 2 V 8 a 1,1 0 0 1 2,0 v 14 h 2 V 8 a 1,1 0 0 1 2,0 v 14 h 2 V 8 a 1,1 0 0 1 2,0 v 18 a 4,4 0 0 1 -4,4 z"
           id="path181" />
        <path
           d="m 50,63 a 3,3 0 0 1 -6,0 V 43 H 41 V 11.5 a 4.5,4.5 0 0 1 9,0 z"
           id="path182" />
      </g>
    </symbol>
    <rect
       x="217.25452"
       y="331.599"
       width="347.79779"
       height="261.08658"
       id="rect158" />
  </defs>
  <g
     inkscape:label="Layer 1"
     inkscape:groupmode="layer"
     id="layer1">
    <use
       xlink:href="#AigaSymbols.svg:Restaurant"
       style="fill:#000000;stroke:#000000"
       id="use1"
       transform="matrix(0.87070578,0,0,0.77824642,82.371035,154.3221)" />
    <circle
       id="path11"
       style="fill:#ffff00;stroke:#000000;stroke-width:0.264583"
       cx="17.949415"
       cy="112.56081"
       r="0.033581298" />
    <circle
       id="path12"
       style="fill:#ffff00;stroke:#000000;stroke-width:0.264583"
       cx="17.949415"
       cy="112.56081"
       r="0.033581298" />
    <circle
       id="path13"
       style="fill:#ffff00;stroke:#000000;stroke-width:0.264583"
       cx="17.949415"
       cy="112.56081"
       r="0.033581298" />
    <circle
       id="path14"
       style="fill:#ffff00;stroke:#000000;stroke-width:0.264583"
       cx="17.949415"
       cy="112.56081"
       r="0.033581298" />
    <circle
       id="path15"
       style="fill:#1a1a1a;stroke:#000000;stroke-width:0.264583"
       cx="10.133885"
       cy="102.47626"
       r="0.033581298" />
    <circle
       id="path22"
       style="fill:#1a1a1a;stroke:#000000;stroke-width:0.264583"
       cx="95.348328"
       cy="121.88903"
       r="0.033581298" />
    <circle
       id="path23"
       style="fill:#1a1a1a;stroke:#000000;stroke-width:0.264583"
       cx="95.348328"
       cy="121.88903"
       r="0.033581298" />
    <circle
       id="path24"
       style="fill:#1a1a1a;stroke:#000000;stroke-width:0.264583"
       cx="98.373688"
       cy="122.64537"
       r="0.033581298" />
    <circle
       id="path43"
       style="fill:#1a1a1a;stroke:#000000;stroke-width:0.264583"
       cx="9.125432"
       cy="99.955132"
       r="0.033581298" />
    <circle
       id="path44"
       style="fill:#1a1a1a;stroke:#000000;stroke-width:0.264583"
       cx="9.125432"
       cy="99.955132"
       r="0.033581298" />
    <circle
       id="path45"
       style="fill:#1a1a1a;stroke:#000000;stroke-width:0.264583"
       cx="11.646565"
       cy="99.955132"
       r="0.033581298" />
    <circle
       id="path46"
       style="fill:#1a1a1a;stroke:#000000;stroke-width:0.264583"
       cx="12.1508"
       cy="100.96358"
       r="0.033581298" />
    <circle
       id="path47"
       style="fill:#1a1a1a;stroke:#000000;stroke-width:0.264583"
       cx="12.1508"
       cy="100.96358"
       r="0.033581298" />
    <circle
       id="path48"
       style="fill:#1a1a1a;stroke:#000000;stroke-width:0.264583"
       cx="12.402905"
       cy="99.450897"
       r="0.033581298" />
    <circle
       id="path49"
       style="fill:#1a1a1a;stroke:#000000;stroke-width:0.264583"
       cx="12.402905"
       cy="99.450897"
       r="0.033581298" />
    <circle
       id="path155"
       style="fill:#1a1a1a;stroke:#000000;stroke-width:0.264583"
       cx="-18.354959"
       cy="133.48625"
       r="0.033581298" />
    <circle
       id="path156"
       style="fill:#1a1a1a;stroke:#000000;stroke-width:0.264583"
       cx="-17.346502"
       cy="118.61153"
       r="0.033581298" />
    <text
       xml:space="preserve"
       transform="matrix(0.275121,0,0,0.27114239,-54.344336,-2.6206855)"
       id="text158"
       style="font-style:normal;font-variant:normal;font-weight:normal;font-stretch:semi-expanded;font-size:192px;font-family:'Kristen ITC';-inkscape-font-specification:'Kristen ITC Semi-Expanded';text-align:start;writing-mode:lr-tb;direction:ltr;white-space:pre;shape-inside:url(#rect158);fill:#8d5fd3;fill-opacity:1"><tspan
         x="217.25391"
         y="500.7199"
         id="tspan2">G</tspan></text>
    <text
       xml:space="preserve"
       style="font-style:normal;font-variant:normal;font-weight:normal;font-stretch:normal;font-size:28.4456px;font-family:'Curlz MT';-inkscape-font-specification:'Curlz MT';text-align:start;writing-mode:lr-tb;direction:ltr;text-anchor:start;fill:#46da25;fill-opacity:1;stroke-width:0.148154"
       x="58.142696"
       y="110.0388"
       id="text159"
       transform="matrix(0.94744367,0.00170221,-0.08761908,1.0553143,0,0)"><tspan
         sodipodi:role="line"
         id="tspan159"
         style="font-style:normal;font-variant:normal;font-weight:normal;font-stretch:normal;font-family:'Curlz MT';-inkscape-font-specification:'Curlz MT';fill:#46da25;fill-opacity:1;stroke-width:0.148154"
         x="58.142696"
         y="110.0388">ojo</tspan></text>
    <text
       xml:space="preserve"
       style="font-style:normal;font-variant:normal;font-weight:normal;font-stretch:normal;font-size:22.4659px;font-family:'Comic Sans MS';-inkscape-font-specification:'Comic Sans MS';text-align:start;writing-mode:lr-tb;direction:ltr;text-anchor:start;fill:#7137c8;fill-opacity:1;stroke-width:0.11701"
       x="49.190479"
       y="132.35497"
       id="text160"
       transform="scale(0.92631979,1.0795408)"><tspan
         sodipodi:role="line"
         id="tspan160"
         style="font-style:normal;font-variant:normal;font-weight:normal;font-stretch:normal;font-family:'Comic Sans MS';-inkscape-font-specification:'Comic Sans MS';fill:#7137c8;stroke-width:0.11701"
         x="49.190479"
         y="132.35497">Dining</tspan></text>
    <g
       id="use1-4"
       style="fill:#000000;stroke:#000000"
       transform="matrix(0.2226722,0,0,0.20488304,64.628665,40.929558)">
      <title
         id="title1">Thought Balloon</title>
      <path
         d="M 170,60 C 152,46 119,49 108,67 76,48 51,103 86,123 c -30,10 -30,50 3,57 -2,30 53,29 59,8 10,23 47,29 60,9 14,10 36,5 43,-9 11,25 41,21 50,1 35,4 40,-31 29,-50 24,-9 22,-39 3,-48 C 349,65 316,33 294,62 281,47.7 247,48 238,63 222,44 185,42 170,60 Z"
         style="stroke:none"
         id="path1" />
      <path
         d="M 165,55 C 147,41 114,44 103,62 71,43 46,98 81,118 c -30,10 -30,50 3,57 -2,30 53,29 59,8 10,23 47,29 60,9 14,10 36,5 43,-9 11,25 41,21 50,1 35,4 40,-31 29,-50 24,-9 22,-39 3,-48 C 344,60 311,28 289,57 276,42.7 242,43 233,58 217,39 180,37 165,55 Z"
         style="fill:#eeeeee;stroke-width:3.5"
         id="path5" />
      <path
         d="M 163,58 C 146,46 115,47 105,64 68,50 59,106 88,117 c -33,14 -20,48 2,50 -5,29 47,29 53,7 10,25 43,24 58,8 13,9 34,4 40,-8 10,22 41,19 48,1 31,7 37,-28 27,-43 23,-7 21,-38 3,-46 C 333,60 304,34 289,64 270,48.4 246,41 230,63 215,43 179,40 163,58 Z"
         style="fill:#ffffff;stroke:none"
         id="path6" />
      <ellipse
         cx="117"
         cy="239"
         rx="30"
         ry="21"
         style="stroke:none"
         id="ellipse10" />
      <ellipse
         cx="113"
         cy="235"
         rx="30"
         ry="21"
         style="fill:#eeeeee;stroke-width:3.5"
         id="ellipse11" />
      <ellipse
         cx="110"
         cy="233"
         rx="23"
         ry="17"
         style="fill:#ffffff;stroke:none"
         id="ellipse12" />
      <ellipse
         cx="74"
         cy="275"
         rx="15"
         ry="11"
         style="stroke:none"
         id="ellipse13" />
      <ellipse
         cx="70"
         cy="271"
         rx="15"
         ry="11"
         style="fill:#eeeeee;stroke-width:3.5"
         id="ellipse14" />
      <ellipse
         cx="67"
         cy="269"
         rx="8"
         ry="7"
         style="fill:#ffffff;stroke:none"
         id="ellipse15" />
    </g>
    <text
       xml:space="preserve"
       transform="scale(0.26458333)"
       id="text32"
       style="fill:#8d5fd3;text-orientation:auto;font-size:26.66666667px;-inkscape-font-specification:'Kristen ITC Semi-Expanded';font-family:'Kristen ITC';font-stretch:semi-expanded;text-align:start;writing-mode:lr-tb;direction:ltr;white-space:pre;shape-inside:url(#rect32)" />
    <text
       xml:space="preserve"
       style="font-stretch:semi-expanded;font-size:7.05556px;font-family:'Kristen ITC';-inkscape-font-specification:'Kristen ITC Semi-Expanded';text-align:start;writing-mode:lr-tb;direction:ltr;text-anchor:start;fill:#00ff00;stroke-width:0.264583"
       x="88.422569"
       y="61.68187"
       id="text33"><tspan
         sodipodi:role="line"
         id="tspan33"
         style="fill:#00ff00;stroke-width:0.264583"
         x="88.422569"
         y="61.68187">Thinking of </tspan><tspan
         sodipodi:role="line"
         style="fill:#00ff00;stroke-width:0.264583"
         x="88.422569"
         y="70.50132"
         id="tspan34">a food ?</tspan></text>
  </g>
</svg>
